<svg width="80" height="80" viewBox="0 0 80 80" fill="none" xmlns="http://www.w3.org/2000/svg">
<g clip-path="url(#clip0_299_14)">
<path d="M36.6356 1.66994L1.67247 36.6037C1.22536 37.0491 0.870592 37.5783 0.628521 38.1612C0.386451 38.744 0.261841 39.3689 0.261841 39.9999C0.261841 40.631 0.386451 41.2559 0.628521 41.8387C0.870592 42.4215 1.22536 42.9508 1.67247 43.3962L36.6356 78.3299C37.0816 78.7763 37.6112 79.1304 38.1941 79.3719C38.777 79.6135 39.4018 79.7379 40.0328 79.7379C40.6638 79.7379 41.2886 79.6135 41.8715 79.3719C42.4544 79.1304 42.984 78.7763 43.43 78.3299L58.0906 63.6818C58.4907 63.2819 58.808 62.8071 59.0245 62.2845C59.2411 61.762 59.3525 61.2018 59.3525 60.6362C59.3525 60.0705 59.2411 59.5104 59.0245 58.9878C58.808 58.4653 58.4907 57.9905 58.0906 57.5906C57.2819 56.7826 56.1856 56.3287 55.0425 56.3287C53.8993 56.3287 52.803 56.7826 51.9943 57.5906L40.8818 68.6937C40.4131 69.1624 39.7018 69.1624 39.2356 68.6937L11.3137 40.7981C10.8468 40.3293 10.8468 39.6193 11.3137 39.1531L39.2356 11.2549C39.7018 10.7887 40.4125 10.7887 40.8812 11.2549L51.9943 22.3581C52.803 23.166 53.8993 23.6199 55.0425 23.6199C56.1856 23.6199 57.2819 23.166 58.0906 22.3581C58.4907 21.9582 58.808 21.4834 59.0245 20.9608C59.2411 20.4382 59.3525 19.8781 59.3525 19.3124C59.3525 18.7468 59.2411 18.1867 59.0245 17.6641C58.808 17.1415 58.4907 16.6667 58.0906 16.2668L43.4325 1.62119C41.545 -0.215063 38.5081 -0.200063 36.6356 1.66994Z" fill="url(#paint0_linear_299_14)"/>
<path d="M36.6356 1.66994L1.67247 36.6037C1.22536 37.0491 0.870592 37.5783 0.628521 38.1612C0.386451 38.744 0.261841 39.3689 0.261841 39.9999C0.261841 40.631 0.386451 41.2559 0.628521 41.8387C0.870592 42.4215 1.22536 42.9508 1.67247 43.3962L36.6356 78.3299C37.0816 78.7763 37.6112 79.1304 38.1941 79.3719C38.777 79.6135 39.4018 79.7379 40.0328 79.7379C40.6638 79.7379 41.2886 79.6135 41.8715 79.3719C42.4544 79.1304 42.984 78.7763 43.43 78.3299L58.0906 63.6818C58.4907 63.2819 58.808 62.8071 59.0245 62.2845C59.2411 61.762 59.3525 61.2018 59.3525 60.6362C59.3525 60.0705 59.2411 59.5104 59.0245 58.9878C58.808 58.4653 58.4907 57.9905 58.0906 57.5906C57.2819 56.7826 56.1856 56.3287 55.0425 56.3287C53.8993 56.3287 52.803 56.7826 51.9943 57.5906L40.8818 68.6937C40.4131 69.1624 39.7018 69.1624 39.2356 68.6937L11.3137 40.7981C10.8468 40.3293 10.8468 39.6193 11.3137 39.1531L39.2356 11.2549C40.4006 10.2512 42.3 8.21744 45.0925 7.74181C47.1662 7.38806 49.4335 8.16598 51.8943 10.0756C50.2493 8.43056 47.4287 5.61244 43.4325 1.62119C41.545 -0.215063 38.5081 -0.200063 36.6356 1.66994Z" fill="url(#paint1_linear_299_14)"/>
<path d="M61.4749 54.3405C62.2836 55.1483 63.3798 55.6021 64.5228 55.6021C65.6657 55.6021 66.7619 55.1483 67.5706 54.3405L78.3837 43.5374C78.8306 43.0922 79.1851 42.5632 79.4271 41.9806C79.669 41.3981 79.7935 40.7735 79.7935 40.1427C79.7935 39.512 79.669 38.8874 79.4271 38.3048C79.1851 37.7223 78.8306 37.1932 78.3837 36.748L67.4756 25.8862C66.6649 25.0792 65.5672 24.6268 64.4234 24.6282C63.2795 24.6296 62.183 25.0847 61.3743 25.8937C60.9738 26.2933 60.656 26.768 60.4392 27.2906C60.2224 27.8133 60.1108 28.3735 60.1108 28.9393C60.1108 29.5051 60.2224 30.0653 60.4392 30.5879C60.656 31.1106 60.9738 31.5853 61.3743 31.9849L68.7431 39.3455C68.8535 39.452 68.9413 39.5796 69.0013 39.7208C69.0613 39.8619 69.0922 40.0137 69.0922 40.1671C69.0922 40.3205 69.0613 40.4723 69.0013 40.6134C68.9413 40.7546 68.8535 40.8822 68.7431 40.9887L61.4743 48.2518C61.0739 48.6512 60.7562 49.1257 60.5394 49.6481C60.3226 50.1705 60.2111 50.7306 60.2111 51.2962C60.2111 51.8618 60.3226 52.4218 60.5394 52.9442C60.7562 53.4666 61.0745 53.9411 61.4749 54.3405Z" fill="url(#paint2_linear_299_14)"/>
<path fill-rule="evenodd" clip-rule="evenodd" d="M49.6487 40.1757C49.6487 34.9657 45.4225 30.7419 40.2075 30.7419C34.995 30.7419 30.7668 34.9657 30.7668 40.1757C30.7668 45.3832 34.995 49.6069 40.2075 49.6069C45.4225 49.6069 49.6487 45.3832 49.6487 40.1757Z" fill="url(#paint3_linear_299_14)"/>
</g>
<defs>
<linearGradient id="paint0_linear_299_14" x1="36.9557" y1="0.253687" x2="70.1918" y2="20.5673" gradientUnits="userSpaceOnUse">
<stop stop-color="#4285EB"/>
<stop offset="1" stop-color="#2EC7FF"/>
</linearGradient>
<linearGradient id="paint1_linear_299_14" x1="41.3874" y1="0.253687" x2="24.9779" y2="85.1013" gradientUnits="userSpaceOnUse">
<stop stop-color="#29CDFF"/>
<stop offset="0.379" stop-color="#148EFF"/>
<stop offset="1" stop-color="#0A60FF"/>
</linearGradient>
<linearGradient id="paint2_linear_299_14" x1="73.8287" y1="20.5995" x2="52.4664" y2="53.9985" gradientUnits="userSpaceOnUse">
<stop stop-color="#FA816E"/>
<stop offset="0.415" stop-color="#F74A5C"/>
<stop offset="1" stop-color="#F51D2C"/>
</linearGradient>
<linearGradient id="paint3_linear_299_14" x1="43.6254" y1="24.0079" x2="36.519" y2="52.4212" gradientUnits="userSpaceOnUse">
<stop stop-color="#FA8E7D"/>
<stop offset="0.513" stop-color="#F74A5C"/>
<stop offset="1" stop-color="#F51D2C"/>
</linearGradient>
<clipPath id="clip0_299_14">
<rect width="80" height="80" fill="white"/>
</clipPath>
</defs>
</svg>
