<svg width="80" height="80" viewBox="0 0 80 80" fill="none" xmlns="http://www.w3.org/2000/svg">
<g id="skill-icons:expressjs-light" clip-path="url(#clip0_106_359)">
<g id="Group">
<path id="Vector" d="M61.25 6.02612e-07L18.75 1.84473e-07C8.39466 8.25914e-08 -8.25914e-08 8.39466 -1.84473e-07 18.75L-6.02612e-07 61.25C-7.04494e-07 71.6053 8.39466 80 18.75 80L61.25 80C71.6053 80 80 71.6053 80 61.25L80 18.75C80 8.39466 71.6053 7.04494e-07 61.25 6.02612e-07Z" fill="#132238"/>
<path id="Vector_2" d="M71.25 57.1677C70.3403 57.5122 69.3358 57.5116 68.4266 57.1658C67.5173 56.82 66.7662 56.1531 66.3153 55.2911C63.4831 51.0514 60.3556 47.003 57.3497 42.8677L56.0463 41.1302C52.4669 45.9258 48.8875 50.5302 45.6209 55.3086C45.1955 56.1325 44.485 56.7735 43.6219 57.1124C42.7589 57.4513 41.802 57.4648 40.9297 57.1505L54.3609 39.1321L41.8678 22.8508C42.7671 22.5261 43.7509 22.5216 44.6532 22.8381C45.5554 23.1547 46.3207 23.7729 46.82 24.5883C49.7216 28.8283 52.9363 32.8768 56.1331 37.1686C59.3478 32.9114 62.5275 28.8455 65.4987 24.6405C65.9266 23.83 66.6374 23.2052 67.4961 22.8848C68.3547 22.5644 69.3012 22.5709 70.1553 22.903L65.3075 29.3321C63.1356 32.1989 60.9984 35.0833 58.7397 37.8808C58.5576 38.0437 58.4119 38.2432 58.3121 38.4663C58.2124 38.6894 58.1608 38.931 58.1608 39.1754C58.1608 39.4197 58.2124 39.6613 58.3121 39.8844C58.4119 40.1075 58.5576 40.307 58.7397 40.4699C62.8925 45.978 67.0103 51.5033 71.25 57.1677ZM8.75 38.9061C9.115 37.1686 9.34062 35.2746 9.84469 33.5024C12.8506 22.8164 25.1003 18.368 33.5275 24.9883C38.4622 28.8633 39.6959 34.3539 39.4528 40.5396L11.6519 40.5396C11.2 51.5905 19.1753 58.2627 29.3747 54.8571C31.0292 54.2652 32.5102 53.2706 33.6842 51.9631C34.8582 50.6557 35.6881 49.0765 36.0991 47.368C36.6378 45.6305 37.5066 45.3352 39.1572 45.8389C38.8854 47.9543 38.1375 49.9805 36.9699 51.7651C35.8022 53.5498 34.2451 55.0465 32.4156 56.1427C29.393 57.7958 25.9251 58.4507 22.5078 58.0138C19.0905 57.5769 15.8989 56.0705 13.3894 53.7102C10.9067 50.9187 9.4055 47.3916 9.115 43.6671C9.115 43.0764 8.88906 42.4855 8.7675 41.9296C8.756 40.9218 8.75017 39.914 8.75 38.9061ZM11.6866 38.1589L36.8291 38.1589C36.6725 30.1489 31.6162 24.4671 24.8747 24.4152C17.3684 24.3108 11.9994 29.8708 11.6691 38.1243L11.6866 38.1589Z" fill="white"/>
</g>
</g>
<defs>
<clipPath id="clip0_106_359">
<rect width="80" height="80" fill="white"/>
</clipPath>
</defs>
</svg>
