<svg width="80" height="80" viewBox="0 0 80 80" fill="none" xmlns="http://www.w3.org/2000/svg">
<g id="Frame 304">
<g id="Group 26">
<path id="Vector" d="M61.25 6.02612e-07L18.75 1.84473e-07C8.39466 8.25914e-08 -8.25914e-08 8.39466 -1.84473e-07 18.75L-6.02612e-07 61.25C-7.04494e-07 71.6053 8.39466 80 18.75 80L61.25 80C71.6053 80 80 71.6053 80 61.25L80 18.75C80 8.39466 71.6053 7.04494e-07 61.25 6.02612e-07Z" fill="#132238"/>
<g id="Group 25">
<path id="Vector_2" d="M17.3334 59.5542L17.7112 59.0276L35.5334 25.2187L35.5711 24.8609L27.7156 10.1054C27.5718 9.83554 27.3468 9.61776 27.0724 9.48284C26.798 9.34793 26.4881 9.3027 26.1866 9.35357C25.8851 9.40443 25.6072 9.54881 25.3923 9.76628C25.1774 9.98375 25.0363 10.2633 24.9889 10.5654L17.3334 59.5542Z" fill="#FFC24A"/>
<path id="Vector_3" d="M17.5559 59.1542L17.8404 58.5987L35.4781 25.1409L27.6426 10.3276C27.5134 10.07 27.3041 9.86116 27.0463 9.73243C26.7884 9.6037 26.4958 9.56199 26.2122 9.61355C25.9287 9.6651 25.6695 9.80715 25.4734 10.0184C25.2774 10.2297 25.1551 10.4988 25.1248 10.7854L17.5559 59.1542Z" fill="#FFA712"/>
<path id="Vector_4" d="M41.2977 36.021L47.1466 30.021L41.2955 18.8632C41.1667 18.6231 40.9753 18.4223 40.7414 18.2824C40.5076 18.1425 40.2402 18.0686 39.9677 18.0686C39.6953 18.0686 39.4279 18.1425 39.1941 18.2824C38.9602 18.4223 38.7688 18.6231 38.64 18.8632L35.5133 24.8232V25.3321L41.2977 36.021Z" fill="#F4BD62"/>
<path id="Vector_5" d="M41.1935 35.7765L46.8802 29.9543L41.1935 19.1099C41.1004 18.8752 40.9414 18.6724 40.7357 18.5259C40.53 18.3795 40.2863 18.2957 40.034 18.2847C39.7817 18.2737 39.5316 18.3358 39.3139 18.4637C39.0962 18.5916 38.9201 18.7797 38.8068 19.0054L35.6646 25.0699L35.5713 25.3788L41.1935 35.7765Z" fill="#FFA50E"/>
<path id="Vector_6" d="M17.3379 59.5564L17.509 59.3831L18.129 59.132L40.929 36.4165L41.2179 35.6298L35.5312 24.7898L17.3379 59.5564Z" fill="#F6820C"/>
<path id="Vector_7" d="M42.0267 71.012L62.6667 59.5031L56.7689 23.2121C56.7266 22.9562 56.6147 22.717 56.4454 22.5206C56.276 22.3242 56.0559 22.1783 55.809 22.0989C55.5622 22.0194 55.2982 22.0095 55.0461 22.0703C54.7941 22.131 54.5636 22.26 54.38 22.4432L17.3334 59.5543L37.8511 71.0098C38.489 71.3657 39.2073 71.5526 39.9378 71.5526C40.6683 71.5526 41.3866 71.3657 42.0245 71.0098" fill="#FDE068"/>
<path id="Vector_8" d="M62.4781 59.4074L56.6292 23.3897C56.6189 23.145 56.5362 22.9089 56.3916 22.7112C56.247 22.5135 56.0471 22.3631 55.817 22.2792C55.5869 22.1952 55.3371 22.1813 55.0992 22.2394C54.8612 22.2974 54.6459 22.4247 54.4803 22.6052L17.5559 59.4852L37.847 70.8186C38.4798 71.1716 39.1924 71.3569 39.917 71.3569C40.6416 71.3569 41.3542 71.1716 41.987 70.8186L62.4781 59.4074Z" fill="#FCCA3F"/>
<path id="Vector_9" d="M42.0267 70.6652C41.3888 71.0212 40.6705 71.208 39.94 71.208C39.2096 71.208 38.4912 71.0212 37.8534 70.6652L17.5023 59.3808L17.3334 59.5541L37.8511 71.0097C38.489 71.3656 39.2073 71.5525 39.9378 71.5525C40.6683 71.5525 41.3866 71.3656 42.0245 71.0097L62.6667 59.503L62.6156 59.1919L42.0267 70.6652Z" fill="#EEAB37"/>
</g>
</g>
</g>
</svg>
