<svg width="80" height="80" viewBox="0 0 80 80" fill="none" xmlns="http://www.w3.org/2000/svg">
<g clip-path="url(#clip0_300_19)">
<path d="M10.8693 1.648C11.0709 1.16034 11.4126 0.743443 11.8512 0.450083C12.2898 0.156722 12.8056 8.56575e-05 13.3333 0L66.6666 0C67.3739 0 68.0521 0.280952 68.5522 0.781049C69.0523 1.28115 69.3333 1.95942 69.3333 2.66667V29.3333C69.3333 30.0406 69.0523 30.7189 68.5522 31.219C68.0521 31.719 67.3739 32 66.6666 32H46.4373L68.5546 54.112C68.9285 54.485 69.1833 54.9605 69.2866 55.4785C69.3898 55.9964 69.337 56.5333 69.1348 57.0211C68.9326 57.509 68.59 57.9258 68.1506 58.2188C67.7112 58.5117 67.1947 58.6676 66.6666 58.6667H42.6666V77.3333C42.6676 77.8614 42.5117 78.3779 42.2187 78.8174C41.9258 79.2568 41.5089 79.5993 41.0211 79.8015C40.5332 80.0037 39.9963 80.0566 39.4784 79.9533C38.9605 79.85 38.4849 79.5952 38.112 79.2213L11.4453 52.5547C11.1978 52.3066 11.0017 52.0121 10.868 51.6882C10.7344 51.3642 10.666 51.0171 10.6666 50.6667V29.3333C10.6666 28.6261 10.9476 27.9478 11.4477 27.4477C11.9478 26.9476 12.626 26.6667 13.3333 26.6667H33.5626L11.4453 4.55467C11.0726 4.18145 10.8189 3.70609 10.7164 3.1887C10.6139 2.67132 10.6671 2.13515 10.8693 1.648Z" fill="black"/>
</g>
<defs>
<clipPath id="clip0_300_19">
<rect width="80" height="80" fill="white"/>
</clipPath>
</defs>
</svg>
