<svg width="80" height="80" viewBox="0 0 80 80" fill="none" xmlns="http://www.w3.org/2000/svg">
<g clip-path="url(#clip0_300_21)">
<path d="M15.8434 49.7152L64.6637 33.4174C63.6881 27.3165 62.9931 23.2409 62.1875 20.1305C61.3197 16.7849 60.6319 15.8899 60.3619 15.5796C59.4204 14.5024 58.2484 13.6513 56.9328 13.0893C56.5528 12.9268 55.4875 12.5493 52.0409 12.7568C48.3944 12.9768 43.6075 13.7218 36.0269 14.9221C28.4487 16.1221 23.6644 16.8949 20.13 17.8099C16.7862 18.6777 15.8884 19.3677 15.5781 19.638C14.5026 20.5802 13.6522 21.7517 13.0897 23.0662C12.9272 23.4459 12.5494 24.5112 12.7572 27.9593C12.9772 31.6046 13.7225 36.3931 14.9228 43.9718C15.2581 46.0968 15.5606 47.9974 15.8434 49.7152Z" fill="url(#paint0_linear_300_21)"/>
<path d="M2.38282 45.957C0.0618829 31.2945 -1.10124 23.9633 1.4147 18.0777C2.72637 15.0076 4.7131 12.2727 7.2272 10.0761C12.0469 5.86797 19.3772 4.70797 34.0384 2.38516C48.7044 0.0592179 56.0353 -1.10047 61.925 1.41484C64.9938 2.72641 67.7277 4.71257 69.9234 7.22578C74.135 12.0464 75.2953 19.3777 77.6166 34.0427C79.94 48.7052 81.1006 56.0386 78.5844 61.922C77.2736 64.9918 75.2879 67.7266 72.7747 69.9233C67.955 74.1339 60.6219 75.2942 45.9584 77.617C31.2972 79.9398 23.9641 81.1002 18.0794 78.5845C15.0106 77.2729 12.2768 75.2867 10.0809 72.7736C5.86907 67.953 4.70876 60.6217 2.38532 45.957H2.38282ZM28.2459 71.9961C32.1725 71.7586 37.2297 70.9661 44.7153 69.7805C52.2034 68.5955 57.2528 67.7855 61.0647 66.7977C64.7538 65.8402 66.4544 64.9073 67.5522 63.9473C69.1676 62.5352 70.444 60.7772 71.2866 58.8039C71.8616 57.4639 72.2241 55.5586 71.9941 51.753C71.7566 47.8273 70.9638 42.7689 69.7784 35.2827C68.5928 27.7967 67.7847 22.7433 66.7972 18.9352C65.8391 15.2445 64.9038 13.5445 63.9459 12.4467C62.5343 10.831 60.7767 9.55422 58.8038 8.71109C57.4631 8.13609 55.5575 7.77359 51.7506 8.00328C47.8241 8.24078 42.7694 9.03359 35.2816 10.2189C27.7959 11.4064 22.7438 12.2142 18.9347 13.2017C15.2431 14.1595 13.545 15.0945 12.4472 16.0523C10.831 17.4642 9.55373 19.2221 8.71032 21.1955C8.13751 22.5358 7.77501 24.4411 8.00501 28.2467C8.24251 32.1748 9.03313 37.2305 10.2209 44.7167C11.4066 52.203 12.2144 57.2564 13.2022 61.0645C14.16 64.7552 15.0928 66.4552 16.0534 67.553C17.4652 69.1686 19.2228 70.4454 21.1956 71.2886C22.5363 71.8636 24.4394 72.2261 28.2488 71.9961H28.2459Z" fill="url(#paint1_linear_300_21)"/>
</g>
<defs>
<linearGradient id="paint0_linear_300_21" x1="1876.82" y1="280.123" x2="2537.03" y2="4404.14" gradientUnits="userSpaceOnUse">
<stop stop-color="#66E3FF"/>
<stop offset="1" stop-color="#7064F9"/>
</linearGradient>
<linearGradient id="paint1_linear_300_21" x1="3133.76" y1="-0.000273213" x2="4404" y2="7934.49" gradientUnits="userSpaceOnUse">
<stop stop-color="#66E3FF"/>
<stop offset="1" stop-color="#7064F9"/>
</linearGradient>
<clipPath id="clip0_300_21">
<rect width="80" height="80" fill="white"/>
</clipPath>
</defs>
</svg>
