<svg width="80" height="80" viewBox="0 0 80 80" fill="none" xmlns="http://www.w3.org/2000/svg">
<g id="skill-icons:javascript" clip-path="url(#clip0_106_382)">
<g id="Group">
<path id="Vector" d="M61.25 6.02612e-07L18.75 1.84473e-07C8.39466 8.25914e-08 -8.25914e-08 8.39466 -1.84473e-07 18.75L-6.02612e-07 61.25C-7.04494e-07 71.6053 8.39466 80 18.75 80L61.25 80C71.6053 80 80 71.6053 80 61.25L80 18.75C80 8.39466 71.6053 7.04494e-07 61.25 6.02612e-07Z" fill="#F0DB4F"/>
<path id="Vector_2" d="M21.035 66.8538L27.1569 63.1488C28.3381 65.2429 29.4125 67.0147 31.9897 67.0147C34.46 67.0147 36.0175 66.0485 36.0175 62.2897L36.0175 36.7279L43.5356 36.7279L43.5356 62.396C43.5356 70.1825 38.9712 73.7269 32.3119 73.7269C26.2978 73.7269 22.8069 70.6122 21.0347 66.8532M47.619 66.0482L53.7403 62.5041C55.3519 65.1357 57.4462 67.0688 61.1512 67.0688C64.2666 67.0688 66.2528 65.5113 66.2528 63.3632C66.2528 60.7857 64.2122 59.8725 60.7753 58.3694L58.8962 57.5635C53.4722 55.2547 49.874 52.3547 49.874 46.2329C49.874 40.5941 54.1703 36.2979 60.8831 36.2979C65.6625 36.2979 69.0994 37.9629 71.5694 42.3125L65.7159 46.0716C64.4269 43.7625 63.0312 42.8497 60.8831 42.8497C58.6812 42.8497 57.285 44.246 57.285 46.0716C57.285 48.3269 58.6812 49.24 61.9031 50.6366L63.7825 51.4419C70.1728 54.181 73.7709 56.9729 73.7709 63.2557C73.7709 70.0225 68.4547 73.7275 61.3125 73.7275C54.3315 73.7275 49.8206 70.3982 47.619 66.0482Z" fill="#323330"/>
</g>
</g>
<defs>
<clipPath id="clip0_106_382">
<rect width="80" height="80" fill="white"/>
</clipPath>
</defs>
</svg>
