<svg width="80" height="80" viewBox="0 0 80 80" fill="none" xmlns="http://www.w3.org/2000/svg">
<g clip-path="url(#clip0_299_10)">
<path d="M61.25 0H18.75C8.39466 0 0 8.39466 0 18.75V61.25C0 71.6053 8.39466 80 18.75 80H61.25C71.6053 80 80 71.6053 80 61.25V18.75C80 8.39466 71.6053 0 61.25 0Z" fill="#242938"/>
<path fill-rule="evenodd" clip-rule="evenodd" d="M60.0097 49.2721C60.2572 49.1299 60.463 48.9251 60.6065 48.6783C60.7499 48.4315 60.8259 48.1513 60.8269 47.8658L60.8563 38.4468C60.8571 38.1613 60.933 37.881 61.0766 37.6343C61.2198 37.3874 61.4256 37.1826 61.6731 37.0405L66.7791 34.1077C67.1529 33.8932 67.5966 33.8357 68.0129 33.9478C68.4291 34.0599 68.7839 34.3325 68.9994 34.7058C69.142 34.9531 69.2171 35.2335 69.2172 35.519V52.6427C69.2172 52.929 69.1417 53.2103 68.9982 53.4581C68.8547 53.7059 68.6484 53.9114 68.4 54.054L49.1309 65.1218C48.8848 65.2629 48.606 65.3373 48.3222 65.3376C48.0385 65.3379 47.7596 65.264 47.5131 65.1233L32.3909 56.4743C32.1419 56.3318 31.935 56.1262 31.7909 55.8781C31.6469 55.63 31.5709 55.3483 31.5706 55.0615V46.4271C31.5706 46.4174 31.5822 46.4108 31.5919 46.4155C31.5938 46.4168 31.5961 46.4175 31.5984 46.4176C31.6007 46.4177 31.603 46.4171 31.6051 46.4159C31.6071 46.4147 31.6087 46.413 31.6098 46.411C31.6109 46.4089 31.6114 46.4066 31.6113 46.4043V46.3946C31.6113 46.388 31.6147 46.3815 31.6213 46.3783L44.0756 39.2233C44.0869 39.2168 44.0819 39.199 44.0691 39.199C44.0656 39.1989 44.0623 39.1975 44.0599 39.195C44.0574 39.1926 44.056 39.1893 44.0559 39.1858L44.0803 30.7205C44.0817 30.4342 44.0074 30.1527 43.865 29.9043C43.7226 29.6559 43.5171 29.4496 43.2694 29.3061C43.0218 29.1625 42.7407 29.0867 42.4544 29.0865C42.1682 29.0862 41.8869 29.1614 41.6391 29.3046L32.3828 34.6383C32.1357 34.7804 31.8557 34.8552 31.5706 34.8552C31.2856 34.8552 31.0055 34.7804 30.7584 34.6383L21.4728 29.2915C21.2255 29.1489 20.945 29.0739 20.6595 29.0741C20.374 29.0742 20.0936 29.1495 19.8464 29.2923C19.5992 29.4351 19.3939 29.6404 19.2511 29.8877C19.1084 30.1349 19.0332 30.4153 19.0331 30.7008V46.0005C19.0334 46.2857 18.9588 46.5659 18.8166 46.8132C18.6745 47.0604 18.4699 47.266 18.2233 47.4092C17.9767 47.5525 17.6968 47.6284 17.4116 47.6294C17.1265 47.6304 16.846 47.5564 16.5984 47.4149L11.4453 44.469C11.1957 44.3264 10.9883 44.1203 10.8442 43.8716C10.7001 43.6229 10.6245 43.3405 10.625 43.053L10.6706 16.3114C10.6712 16.0264 10.7467 15.7464 10.8895 15.4997C11.0323 15.2529 11.2374 15.048 11.4843 14.9055C11.7312 14.7629 12.0112 14.6877 12.2963 14.6874C12.5814 14.6871 12.8615 14.7616 13.1088 14.9036L30.76 25.0421C31.0067 25.1838 31.2862 25.2583 31.5706 25.2583C31.8551 25.2583 32.1346 25.1838 32.3813 25.0421L50.0278 14.9036C50.4018 14.6887 50.8459 14.6311 51.2624 14.7435C51.6789 14.8559 52.0337 15.1291 52.2488 15.503C52.3913 15.7502 52.4659 16.0308 52.4659 16.3164V43.0643C52.466 43.3504 52.3906 43.6315 52.2475 43.8793C52.1043 44.1271 51.8983 44.3327 51.6503 44.4755L42.4088 49.7977C42.1606 49.941 41.9547 50.1472 41.8117 50.3954C41.6686 50.6437 41.5936 50.9253 41.5941 51.2118C41.5946 51.4983 41.6709 51.7796 41.8151 52.0272C41.9593 52.2748 42.1664 52.4799 42.4153 52.6218L47.5131 55.5236C47.7594 55.6641 48.0382 55.7377 48.3217 55.7371C48.6052 55.7366 48.8836 55.6619 49.1294 55.5205L60.0097 49.2721ZM61.0791 25.278C61.0795 25.5658 61.1561 25.8484 61.3012 26.0969C61.4463 26.3455 61.6546 26.5511 61.905 26.693C62.1555 26.8349 62.4391 26.9077 62.727 26.9041C63.0148 26.9006 63.2966 26.8207 63.5434 26.6727L68.4263 23.743C68.6672 23.5985 68.8666 23.3941 69.0052 23.1497C69.1438 22.9053 69.2168 22.6293 69.2172 22.3483V16.378C69.2166 16.1628 69.1734 15.9499 69.09 15.7516C69.0067 15.5532 68.8849 15.3733 68.7317 15.2222C68.5785 15.0712 68.3968 14.952 68.1973 14.8715C67.9977 14.791 67.7842 14.7508 67.5691 14.7533C67.2813 14.7569 66.9997 14.8367 66.7528 14.9846L61.87 17.9143C61.6289 18.0586 61.4293 18.263 61.2907 18.5075C61.1521 18.752 61.0792 19.0282 61.0791 19.3093V25.2793V25.278Z" fill="#007FFF"/>
</g>
<defs>
<clipPath id="clip0_299_10">
<rect width="80" height="80" fill="white"/>
</clipPath>
</defs>
</svg>
