<svg width="80" height="80" viewBox="0 0 80 80" fill="none" xmlns="http://www.w3.org/2000/svg">
<g id="skill-icons:mongodb" clip-path="url(#clip0_106_363)">
<g id="Group">
<path id="Vector" d="M61.25 6.02612e-07L18.75 1.84473e-07C8.39466 8.25914e-08 -8.25914e-08 8.39466 -1.84473e-07 18.75L-6.02612e-07 61.25C-7.04494e-07 71.6053 8.39466 80 18.75 80L61.25 80C71.6053 80 80 71.6053 80 61.25L80 18.75C80 8.39466 71.6053 7.04494e-07 61.25 6.02612e-07Z" fill="#132238"/>
<path id="Vector_2" d="M53.4915 33.6222C50.1987 19.0969 43.3362 15.23 41.5856 12.4966C40.8636 11.2924 40.2241 10.0407 39.6715 8.75C39.579 10.0406 39.409 10.8531 38.3121 11.8319C36.11 13.7953 26.7568 21.4172 25.9696 37.9212C25.2362 53.3094 37.2821 62.7978 38.8734 63.7787C40.0971 64.3809 41.5875 63.7916 42.3146 63.2387C48.1212 59.2537 56.055 48.6294 53.4978 33.6222" fill="#10AA50"/>
<path id="Vector_3" d="M40.1702 55.5847C39.8671 59.3935 39.6499 61.6066 38.8799 63.7832C38.8799 63.7832 39.3852 67.4091 39.7402 71.25L40.9961 71.25C41.2957 68.5452 41.7532 65.8602 42.3661 63.2088C40.7402 62.4088 40.2327 58.9269 40.1702 55.5847Z" fill="#B8C4C2"/>
<path id="Vector_4" d="M42.3642 63.211C40.7211 62.4519 40.2458 58.8966 40.1726 55.5847C40.5789 50.1213 40.6974 44.6403 40.5276 39.1644C40.4414 36.2913 40.5683 12.5525 39.8198 9.0769C40.3319 10.254 40.9218 11.3957 41.5858 12.4944C43.3364 15.23 50.2011 19.0969 53.4917 33.6222C56.0551 48.6038 48.1645 59.2 42.3642 63.211Z" fill="#12924F"/>
</g>
</g>
<defs>
<clipPath id="clip0_106_363">
<rect width="80" height="80" fill="white"/>
</clipPath>
</defs>
</svg>
