<svg width="80" height="80" viewBox="0 0 80 80" fill="none" xmlns="http://www.w3.org/2000/svg">
<g id="Frame 303">
<g id="Group 24">
<path id="Vector" d="M61.25 6.02612e-07L18.75 1.84473e-07C8.39466 8.25914e-08 -8.25914e-08 8.39466 -1.84473e-07 18.75L-6.02612e-07 61.25C-7.04494e-07 71.6053 8.39466 80 18.75 80L61.25 80C71.6053 80 80 71.6053 80 61.25L80 18.75C80 8.39466 71.6053 7.04494e-07 61.25 6.02612e-07Z" fill="#850000"/>
<g id="Group 23">
<path id="Vector_2" d="M43.66 26.7195C42.7372 26.758 41.1778 27.0058 41.1778 27.1104C41.1778 27.1539 42.2769 27.7045 42.3611 27.7045C42.4382 27.7045 43.714 28.3411 43.9975 28.5173C44.3676 28.754 44.6324 28.9688 44.5548 28.9688C44.5052 28.9688 43.1953 28.4616 42.6986 28.2485C42.2945 28.0784 40.6146 27.5774 39.7969 27.3841C39.3542 27.2806 39.167 27.242 38.4143 27.1044C37.3043 26.9017 35.9988 26.8896 35.4311 27.0763C34.6178 27.3406 34.435 27.6654 34.435 28.8636C34.435 29.5243 34.4675 29.8035 34.6112 30.397C34.674 30.6553 34.8502 31.223 34.9322 31.4146C34.9559 31.4752 35.033 31.6624 35.0974 31.8275C35.164 31.9911 35.3645 32.4145 35.5407 32.7608C36.5301 34.7249 38.0118 36.3619 40.1003 37.8023C40.7588 38.2538 42.5483 39.11 43.2663 39.3148C43.4491 39.3644 43.5097 39.4673 43.361 39.4673C43.1959 39.4673 41.6817 39.05 41.3717 38.9189C41.2537 38.8666 41.134 38.8185 41.0127 38.7747C39.9351 38.3402 38.5586 37.4455 37.4205 36.4279C36.1732 35.3184 35.1762 33.9564 34.4956 32.4321C34.059 31.4465 33.7622 30.2985 33.6889 29.298C33.646 28.7259 33.6008 28.5883 33.4522 28.5949C33.4026 28.5949 32.9318 28.5778 32.4132 28.5497C31.0025 28.4892 29.0753 28.6444 27.1675 28.9737C23.5196 29.5948 19.5838 31.0297 15.5335 33.2167C14.8599 33.5815 14.1944 33.9609 13.5375 34.3549C13.4605 34.4 13.2171 34.5481 12.9957 34.6858C12.776 34.8234 12.5161 34.9765 12.4214 35.0365C12.2122 35.1593 9.89632 36.7313 9.61881 36.94C9.51529 37.0154 9.22732 37.2302 8.9845 37.4069C7.88492 38.2196 5.4914 40.1727 5.35375 40.3709C5.28712 40.47 5.39229 40.5195 5.53435 40.47C5.60758 40.4414 5.79479 40.4028 5.94511 40.3819C6.09983 40.3577 6.49793 40.2547 6.82884 40.1451C7.16472 40.0394 7.52592 39.9298 7.62944 39.9018C8.44875 39.7101 8.78022 39.6435 9.25926 39.5725C9.47675 39.545 9.79721 39.4954 9.97781 39.4673C12.2232 39.1381 13.2947 39.0566 14.2946 39.1315C16.4668 39.3076 18.5448 39.6782 19.7342 40.0994C20.6245 40.4199 22.4355 41.3989 23.2317 41.9858C23.692 42.3327 25.1715 43.8056 25.4985 44.2505C25.7518 44.6035 26.0337 44.9113 26.1004 44.9113C26.1224 44.9113 26.1499 43.788 26.1565 42.4203L26.1714 39.9359L29.0797 39.9194C31.3681 39.9084 32.0024 39.9254 32.0415 39.9744C32.0971 40.046 32.2304 40.2828 32.667 41.0889C33.0822 41.8653 33.2864 42.2397 33.4136 42.4632C33.4797 42.586 33.6328 42.8701 33.7622 43.0959C33.8822 43.3216 34.108 43.739 34.2632 44.0248C34.418 44.3111 34.5446 44.5539 34.5446 44.5644C34.5446 44.6139 34.7725 44.9113 34.8116 44.9113C34.8331 44.9113 34.8887 44.827 34.9273 44.7351C34.9708 44.6359 35.087 44.4163 35.1817 44.2505C35.2808 44.0853 35.457 43.7627 35.5792 43.5369C35.702 43.3112 35.8677 42.9973 35.9558 42.8486C36.1986 42.4137 36.4525 41.9429 36.6634 41.558C36.887 41.1327 37.1172 40.7109 37.3538 40.2927C37.4249 40.155 37.5135 40.0108 37.541 39.9744C37.5862 39.9249 38.2376 39.9078 40.5931 39.9183L43.5829 39.9353L43.5995 44.7901C43.6105 48.6141 43.6259 49.6383 43.682 49.6383C43.714 49.6317 43.9353 49.5045 44.1633 49.3454C44.4837 49.1218 44.6214 48.9841 44.7701 48.7303C45.1076 48.1538 46.0646 47.2464 46.7055 46.8935C47.4844 46.4628 48.3221 46.1486 49.192 45.9607C50.0758 45.7735 50.3362 45.746 52.3432 45.6744C56.0059 45.5478 56.5477 45.5257 56.5758 45.4982C56.5929 45.4833 56.5439 45.3391 56.4706 45.1733C56.3935 45.0142 56.2614 44.7174 56.1672 44.5198C55.8187 43.7671 55.8187 43.5149 56.1843 43.1454C56.4321 42.8866 57.0724 42.6609 58.1737 42.4417C58.3548 42.4032 58.5828 42.3536 58.6747 42.3217C58.77 42.2936 58.8856 42.2722 58.9352 42.2722C59.075 42.2722 60.1741 42.0029 60.4064 41.9148C60.5661 41.8487 61.4284 41.6615 62.4564 41.4633C62.9035 41.3752 64.0653 41.145 65.0266 40.9512C65.6351 40.8312 66.2699 40.704 66.4351 40.6715C66.6008 40.6396 66.8398 40.59 66.9604 40.5686C67.0826 40.541 67.2417 40.5063 67.3194 40.4953C67.3965 40.4805 67.7841 40.4028 68.1772 40.3213C68.472 40.2567 68.7684 40.1992 69.0659 40.149C69.3435 40.1231 71.4275 39.622 71.9071 39.4673C72.6708 39.2195 72.8966 39.121 73.3784 38.7983C73.8965 38.4459 74.0407 38.2543 74.5545 37.2302C75.1249 36.0926 75.2064 35.901 75.3677 35.4214C75.6155 34.6583 75.6001 34.3675 75.284 34.0471C75.0621 33.8279 74.587 33.6022 74.2406 33.5526C73.9807 33.5201 73.946 33.5306 73.8194 33.6683C73.7418 33.7508 73.6751 33.8494 73.6751 33.8835C73.6751 33.9331 73.587 34.1743 73.3393 34.7678C73.3156 34.8284 73.2666 34.9765 73.2275 35.0965C73.1955 35.2193 73.1284 35.3895 73.0898 35.482C73.0188 35.6361 73.0127 35.6086 73.0403 35.1808C73.0684 34.7568 73.1394 34.4 73.3007 33.8599C73.3288 33.7569 73.3673 33.5807 73.3828 33.4706L73.4103 33.2724L72.836 33.0428C72.2386 32.795 71.7238 32.5802 71.4275 32.447C71.3262 32.4106 71.079 32.3115 70.8747 32.2339C70.6638 32.1568 70.41 32.0577 70.3048 32.0081C70.1131 31.9233 69.9194 31.8431 69.7239 31.7675C69.3539 31.6233 68.0611 31.1844 66.9598 30.8381C66.2247 30.6126 65.4885 30.3906 64.7513 30.1718C64.4919 30.1058 64.2337 30.0346 63.9772 29.9582C63.8891 29.9345 63.6716 29.8745 63.5058 29.8316C62.5334 29.5629 62.2802 29.4957 61.9311 29.3966C61.7387 29.3412 61.5452 29.2898 61.3507 29.2424C61.2456 29.2165 60.9598 29.1499 60.7164 29.0893C60.2902 28.9842 58.5051 28.5734 57.5372 28.3515L56.8467 28.1924C56.7245 28.1649 56.5053 28.1214 56.35 28.0933C56.1997 28.0657 55.8853 28.0052 55.6574 27.9556C55.4316 27.9132 54.9454 27.818 54.5798 27.758C54.2164 27.6935 53.7798 27.6164 53.614 27.5884C52.0872 27.3131 51.9842 27.2976 49.2477 26.9948C47.5617 26.8032 45.2942 26.6419 44.742 26.6699C44.6539 26.6699 44.1638 26.6914 43.66 26.7195ZM37.2701 29.4291C38.7304 29.9026 40.1499 30.5457 41.1222 31.1734C41.8964 31.6728 42.8578 32.4707 43.1182 32.8275L43.2278 32.9761L43.0191 32.8941C42.9035 32.8445 42.6601 32.7399 42.4773 32.6513C41.5049 32.1998 41.3997 32.1629 41.3997 32.262C41.3997 32.2879 41.6255 32.6513 41.8964 33.0576C42.1739 33.4706 42.3931 33.834 42.3931 33.867C42.3931 33.8946 42.2901 33.8494 42.1607 33.7613C41.664 33.421 40.4978 32.931 40.4318 33.0301C40.4147 33.0576 40.7731 33.5135 41.234 34.0471C41.6855 34.5806 42.0621 35.0365 42.0621 35.0712C42.0621 35.1527 41.974 35.1417 41.5545 34.987C41.1222 34.8345 41.0127 34.8174 41.0127 34.9226C41.0127 34.9936 41.946 36.2517 42.316 36.6862C42.4211 36.8068 42.5048 36.9229 42.5048 36.9505C42.5048 37.0821 41.2103 36.2413 40.2941 35.5161C38.9837 34.471 37.7172 33.0686 37.051 31.9096C36.502 30.9625 36.3148 30.4532 36.3148 29.8916C36.3148 29.5629 36.3302 29.4962 36.4525 29.3795C36.5241 29.3046 36.6138 29.2419 36.6463 29.2419C36.6782 29.2419 36.9557 29.3261 37.2701 29.4291ZM54.7197 31.3865C55.2488 31.4812 55.9734 31.6062 56.322 31.6684C56.6705 31.729 57.0961 31.7995 57.2619 31.8275C57.4276 31.86 57.6638 31.903 57.7866 31.9305C57.9077 31.9586 58.1461 32.0081 58.3119 32.0467C58.8581 32.1678 58.9913 32.1954 59.8861 32.404C60.8475 32.6298 61.0583 32.6727 61.3507 32.7328C61.6002 32.7823 61.8474 32.877 61.8474 32.92C61.8474 32.9376 61.6668 33.0428 61.4454 33.1567C60.9917 33.3825 60.897 33.3996 59.0299 33.4706C57.7591 33.5245 57.0791 33.5091 56.4596 33.41C55.2097 33.2173 54.5649 32.8666 54.0617 32.1073C53.8855 31.849 53.7693 31.7714 53.3646 31.6684C53.2159 31.6233 52.9885 31.5627 52.868 31.5242C52.7452 31.4856 52.5365 31.425 52.4032 31.3865C52.0051 31.2835 52.2314 31.223 53.0337 31.223C53.586 31.223 53.9736 31.2599 54.7197 31.3865ZM61.3678 39.0676C61.3225 39.0783 61.2754 39.0783 61.2301 39.0676C61.1916 39.05 61.2191 39.0395 61.2968 39.0395C61.3722 39.0395 61.4003 39.0505 61.3683 39.067L61.3678 39.0676ZM61.1294 39.132C61.1294 39.1595 61.065 39.1981 60.9807 39.2157C60.8089 39.2586 60.1355 39.4525 59.9142 39.5229C59.8365 39.551 59.5871 39.6287 59.3614 39.6936C58.7915 39.8588 57.4105 40.3081 57.0405 40.4524C56.3434 40.7167 54.707 41.5839 54.4768 41.8162C54.1327 42.1516 54.027 42.5128 54.0788 43.2055C54.0936 43.4978 54.1327 43.8662 54.1669 44.0248C54.2335 44.3717 54.1944 44.4658 54.0617 44.294C53.9284 44.1239 53.6465 43.5088 53.5645 43.2055C53.5193 43.07 53.4703 42.8872 53.4422 42.7991C53.3431 42.4869 53.3817 42.1169 53.5369 41.8933C53.7456 41.5729 54.4983 41.063 55.3821 40.6396C55.8016 40.4353 57.0229 40.0174 58.1461 39.6887C58.3719 39.6226 58.6213 39.545 58.699 39.5235C59.4946 39.2542 61.1294 38.996 61.1294 39.132ZM43.6496 39.5015C43.6319 39.5169 43.5829 39.5235 43.5438 39.5059C43.4987 39.491 43.5163 39.4739 43.5763 39.4739C43.6385 39.4673 43.671 39.4849 43.6496 39.5015Z" fill="white"/>
<path id="Vector_3" d="M32.0586 50.1334V53.9811H34.8117C36.8787 53.9811 37.5796 53.9646 37.6292 53.915C37.7129 53.8324 37.7305 46.2857 37.6462 46.2857C37.6187 46.2857 37.5802 46.3287 37.5625 46.3782C37.5405 46.4278 36.9387 47.3677 36.2201 48.4667C35.0826 50.2044 34.7665 50.6279 34.7665 50.4131C34.7665 50.3746 32.8823 47.4343 32.4005 46.724C32.336 46.6321 32.2791 46.535 32.2304 46.4338C32.1852 46.3501 32.1313 46.2852 32.1037 46.2852C32.0801 46.2852 32.0586 48.0168 32.0586 50.1334Z" fill="white"/>
</g>
</g>
</g>
</svg>
