<svg width="64" height="64" viewBox="0 0 64 64" fill="none" xmlns="http://www.w3.org/2000/svg">
<g clip-path="url(#clip0_296_10)">
<path d="M48.6478 0H14.8922C6.66746 0 0 6.66746 0 14.8922V48.6478C0 56.8725 6.66746 63.54 14.8922 63.54H48.6478C56.8725 63.54 63.54 56.8725 63.54 48.6478V14.8922C63.54 6.66746 56.8725 0 48.6478 0Z" fill="#242938"/>
<path d="M30.1445 6.96304C30.0378 6.97272 29.698 7.00673 29.3922 7.0308C22.3418 7.66645 15.7376 11.4709 11.5546 17.3181C9.22573 20.5693 7.73576 24.2571 7.17309 28.1636C6.97428 29.5272 6.94995 29.93 6.94995 31.7786C6.94995 33.6275 6.97427 34.0303 7.17333 35.3937C8.52207 44.7152 15.1555 52.5473 24.1519 55.449C25.763 55.9683 27.4612 56.3225 29.3925 56.5359C30.1448 56.6183 33.3957 56.6183 34.148 56.5359C37.4817 56.1671 40.3057 55.3423 43.0911 53.9203C43.518 53.7022 43.6006 53.6438 43.5423 53.5954C43.5036 53.5662 41.6837 51.1253 39.5003 48.1752L35.531 42.8133L30.557 35.452C27.8204 31.4051 25.5689 28.0956 25.5493 28.0956C25.5299 28.0908 25.5106 31.3614 25.5009 35.355C25.4863 42.3474 25.4815 42.6288 25.3942 42.7936C25.2681 43.0314 25.171 43.1285 24.967 43.2354C24.8119 43.3129 24.6759 43.3275 23.9432 43.3275H23.1038L22.8804 43.1868C22.7421 43.1002 22.6298 42.9778 22.5552 42.8326L22.4535 42.6142L22.4634 32.8851L22.4778 23.1511L22.6282 22.9617C22.7059 22.86 22.8709 22.7289 22.9873 22.6659C23.1862 22.5688 23.2638 22.5591 24.1033 22.5591C25.0934 22.5591 25.2582 22.5979 25.5155 22.8793C25.5883 22.957 28.2813 27.0136 31.5034 31.9C34.7655 36.8459 38.0295 41.7906 41.2956 46.7339L45.2261 52.688L45.4252 52.557C47.1864 51.4118 49.0499 49.7813 50.525 48.0829C53.6645 44.4775 55.6881 40.0813 56.3674 35.3937C56.5663 34.0303 56.5906 33.6275 56.5906 31.7786C56.5906 29.93 56.5663 29.5272 56.3674 28.1636C55.0185 18.842 48.385 11.0102 39.3886 8.1085C37.8018 7.59398 36.1133 7.23979 34.2208 7.02634C33.7549 6.97769 30.5474 6.92457 30.1448 6.96329M40.3057 21.9768C40.5385 22.0933 40.7279 22.3164 40.7959 22.5492C40.8346 22.6755 40.8443 25.3735 40.8346 31.4535L40.82 40.1783L39.2819 37.8199L37.7388 35.4617V29.1196C37.7388 25.0193 37.7582 22.7143 37.7872 22.6026C37.8649 22.331 38.0347 22.1176 38.2677 21.9912C38.4665 21.8895 38.5395 21.8796 39.3012 21.8796C40.0195 21.8796 40.1456 21.8895 40.3057 21.9768Z" fill="white"/>
</g>
<defs>
<clipPath id="clip0_296_10">
<rect width="63.54" height="63.54" fill="white"/>
</clipPath>
</defs>
</svg>
