<svg width="80" height="80" viewBox="0 0 80 80" fill="none" xmlns="http://www.w3.org/2000/svg">
<g clip-path="url(#clip0_302_2)">
<path d="M21.1767 0H58.8233C64.4397 0 69.8261 2.23111 73.7975 6.2025C77.7689 10.1739 80 15.5603 80 21.1767V58.8233C80 64.4397 77.7689 69.8261 73.7975 73.7975C69.8261 77.7689 64.4397 80 58.8233 80H21.1767C15.5603 80 10.1739 77.7689 6.2025 73.7975C2.23111 69.8261 0 64.4397 0 58.8233L0 21.1767C0 15.5603 2.23111 10.1739 6.2025 6.2025C10.1739 2.23111 15.5603 0 21.1767 0ZM47.0267 23.0433H43.9167V45.3833C43.9436 47.0722 43.5276 48.7386 42.71 50.2167C41.91 51.63 40.7233 52.7833 39.2933 53.55C37.8178 54.3633 36.0922 54.7689 34.1167 54.7667C32.1433 54.7667 30.4211 54.3622 28.95 53.5533C27.5228 52.7834 26.3402 51.6286 25.5367 50.22C24.7112 48.7447 24.2914 47.077 24.32 45.3867V23.04H21.21V45.5967C21.173 47.776 21.737 49.9234 22.84 51.8033C23.93 53.6267 25.5 55.1167 27.38 56.11C29.32 57.1633 31.5656 57.69 34.1167 57.69C36.6811 57.69 38.93 57.1667 40.8633 56.12C42.7416 55.127 44.3101 53.6358 45.3967 51.81C46.4967 49.9267 47.0633 47.7767 47.03 45.5967L47.0267 23.0433ZM59.1867 57.11V23.0467H56.0767V57.1133H59.1867V57.11Z" fill="black"/>
</g>
<defs>
<clipPath id="clip0_302_2">
<rect width="80" height="80" fill="white"/>
</clipPath>
</defs>
</svg>
