<svg width="80" height="80" viewBox="0 0 80 80" fill="none" xmlns="http://www.w3.org/2000/svg">
<g id="skill-icons:nodejs-dark" clip-path="url(#clip0_106_391)">
<g id="Group">
<path id="Vector" d="M61.25 0H18.75C8.39466 0 0 8.39466 0 18.75V61.25C0 71.6053 8.39466 80 18.75 80H61.25C71.6053 80 80 71.6053 80 61.25V18.75C80 8.39466 71.6053 0 61.25 0Z" fill="#132238"/>
<path id="Vector_2" d="M37.4618 9.72379C38.9989 8.8441 41.0008 8.84004 42.5364 9.72379C50.2621 14.0894 57.9902 18.4479 65.7146 22.816C67.1677 23.6344 68.1393 25.2513 68.1246 26.9254V53.1894C68.1355 54.9328 67.0677 56.5885 65.5349 57.3882C57.8346 61.7297 50.138 66.0763 42.4389 70.4179C40.8705 71.3147 38.8283 71.2457 37.3083 70.275C34.9999 68.9369 32.6874 67.605 30.3786 66.2682C29.9068 65.9869 29.3749 65.7632 29.0418 65.3057C29.3364 64.9088 29.863 64.8594 30.2908 64.686C31.2543 64.3794 32.1396 63.8875 33.0246 63.4103C33.2486 63.2572 33.5218 63.316 33.7364 63.4529C35.7105 64.5847 37.6674 65.7497 39.648 66.8707C40.0705 67.1147 40.4983 66.7907 40.8596 66.5894C48.4158 62.3185 55.9814 58.0641 63.5368 53.7919C63.8168 53.6572 63.9714 53.36 63.9486 53.0535C63.9539 44.3894 63.9499 35.7241 63.9515 27.0597C63.9833 26.7122 63.7821 26.3922 63.4674 26.2497C55.7939 21.9282 48.1239 17.6004 40.4518 13.2779C40.3189 13.1864 40.1614 13.1373 40.0001 13.137C39.8388 13.1368 39.6812 13.1853 39.548 13.2763C31.8755 17.6004 24.2074 21.9325 16.5349 26.2535C16.2214 26.3963 16.0111 26.711 16.0483 27.0597C16.0499 35.7241 16.0483 44.3894 16.0483 53.0547C16.035 53.2044 16.0679 53.3546 16.1425 53.485C16.2172 53.6154 16.33 53.7198 16.4658 53.7841C18.513 54.945 20.563 56.0979 22.6118 57.255C23.7661 57.876 25.183 58.2453 26.4549 57.7694C27.5768 57.3669 28.3633 56.2216 28.3421 55.0303C28.3527 46.4169 28.3368 37.8022 28.3499 29.1897C28.3218 28.8075 28.6846 28.4916 29.0564 28.5279C30.0402 28.521 31.0252 28.5144 32.0089 28.5304C32.4196 28.521 32.7021 28.9329 32.6514 29.3179C32.6474 37.986 32.6621 46.6541 32.6449 55.3219C32.6474 57.6322 31.6983 60.146 29.5614 61.2763C26.9293 62.6397 23.6755 62.3507 21.0749 61.0432C18.8236 59.9194 16.6749 58.5932 14.4636 57.3894C12.9268 56.5941 11.8643 54.9319 11.8752 53.1897V26.9254C11.8589 25.2166 12.8696 23.5704 14.3674 22.7638C22.0664 18.4191 29.7643 14.0707 37.4618 9.72379Z" fill="#81CD39"/>
<path id="Vector_3" d="M44.1788 27.9172C47.5367 27.701 51.1313 27.7891 54.1529 29.4435C56.4926 30.711 57.7895 33.3716 57.8307 35.9706C57.7654 36.321 57.3988 36.5144 57.0642 36.4903C56.0901 36.4891 55.1154 36.5038 54.1413 36.4838C53.7279 36.4997 53.4879 36.1188 53.436 35.7535C53.156 34.5097 52.4776 33.2781 51.3073 32.6781C49.5104 31.7788 47.4273 31.8241 45.4679 31.8428C44.0376 31.9185 42.4995 32.0425 41.2876 32.8835C40.3573 33.5206 40.0748 34.8069 40.4067 35.8428C40.7198 36.5866 41.5782 36.8266 42.281 37.0478C46.3276 38.1063 50.6157 38.0006 54.5851 39.3935C56.2285 39.9613 57.836 41.0653 58.3985 42.786C59.1345 45.0922 58.812 47.8485 57.171 49.6997C55.8404 51.2232 53.9026 52.0525 51.9698 52.5028C49.3985 53.0763 46.7301 53.091 44.1188 52.8363C41.6635 52.5563 39.1082 51.9113 37.2129 50.2385C35.592 48.831 34.8004 46.6378 34.8788 44.5216C34.8976 44.1641 35.2535 43.9147 35.596 43.9441C36.577 43.9363 37.5582 43.9335 38.5392 43.9457C38.9313 43.9175 39.2217 44.2563 39.242 44.6256C39.4226 45.8103 39.8679 47.0541 40.9013 47.7563C42.8951 49.0428 45.3973 48.9547 47.6804 48.9907C49.572 48.9069 51.6954 48.8816 53.2388 47.6313C54.0532 46.9181 54.2945 45.725 54.0745 44.6988C53.836 43.8322 52.9295 43.4285 52.151 43.1644C48.1563 41.901 43.8201 42.3594 39.8642 40.9303C38.2579 40.3628 36.7048 39.2897 36.0879 37.6397C35.227 35.3044 35.6213 32.4156 37.4342 30.6272C39.2017 28.8475 41.7529 28.1622 44.1788 27.9172Z" fill="#81CD39"/>
</g>
</g>
<defs>
<clipPath id="clip0_106_391">
<rect width="80" height="80" fill="white"/>
</clipPath>
</defs>
</svg>
