<svg width="80" height="80" viewBox="0 0 80 80" fill="none" xmlns="http://www.w3.org/2000/svg">
<g id="skill-icons:react-light" clip-path="url(#clip0_106_375)">
<g id="Group">
<path id="Vector" d="M61.25 6.02612e-07L18.75 1.84473e-07C8.39466 8.25914e-08 -8.25914e-08 8.39466 -1.84473e-07 18.75L-6.02612e-07 61.25C-7.04494e-07 71.6053 8.39466 80 18.75 80L61.25 80C71.6053 80 80 71.6053 80 61.25L80 18.75C80 8.39466 71.6053 7.04494e-07 61.25 6.02612e-07Z" fill="#132238"/>
<path id="Vector_2" d="M40.0004 45.9222C43.2204 45.9222 45.8304 43.3119 45.8304 40.0922C45.8304 36.8725 43.2204 34.2622 40.0004 34.2622C36.7807 34.2622 34.1704 36.8725 34.1704 40.0922C34.1704 43.3119 36.7807 45.9222 40.0004 45.9222Z" fill="#00D8FF"/>
<path id="Vector_3" d="M40.0006 28.2385C47.8281 28.2385 55.0997 29.3617 60.5825 31.2495C67.1884 33.5235 71.25 36.9707 71.25 40.0923C71.25 43.3451 66.9456 47.0073 59.8516 49.3576C54.4884 51.1345 47.4309 52.062 40.0006 52.062C32.3825 52.062 25.1684 51.1913 19.7447 49.3379C12.8828 46.9926 8.75 43.2832 8.75 40.0923C8.75 36.996 12.6281 33.5754 19.1412 31.3048C24.6444 29.386 32.0953 28.2385 39.9994 28.2385L40.0006 28.2385Z" stroke="#00D8FF" stroke-width="2.05371"/>
<path id="Vector_4" d="M29.6814 34.1994C33.5921 27.4187 38.1974 21.6806 42.5717 17.8744C47.8417 13.2878 52.8574 11.4916 55.5611 13.0506C58.3789 14.6756 59.4011 20.2344 57.8933 27.5537C56.7542 33.0872 54.0311 39.6641 50.3189 46.1009C46.513 52.7003 42.1552 58.5147 37.8405 62.2859C32.3808 67.0584 27.1024 68.7856 24.3383 67.1916C21.6561 65.6459 20.6305 60.5769 21.9174 53.8003C23.0046 48.0744 25.733 41.0466 29.6802 34.1994L29.6814 34.1994Z" stroke="#00D8FF" stroke-width="2.05371"/>
<path id="Vector_5" d="M29.6912 46.1181C25.7697 39.3449 23.0997 32.4881 21.9853 26.7974C20.6437 19.9409 21.5922 14.6987 24.2937 13.1349C27.109 11.5049 32.435 13.3956 38.0231 18.3574C42.2481 22.1087 46.5865 27.7515 50.3093 34.1821C54.1262 40.7752 56.9868 47.4549 58.0997 53.0762C59.5078 60.1899 58.3681 65.6252 55.6065 67.2237C52.9272 68.7749 48.0237 67.1327 42.7953 62.6334C38.3778 58.8321 33.6515 52.9587 29.6912 46.1181Z" stroke="#00D8FF" stroke-width="2.05371"/>
</g>
</g>
<defs>
<clipPath id="clip0_106_375">
<rect width="80" height="80" fill="white"/>
</clipPath>
</defs>
</svg>
