<svg width="80" height="80" viewBox="0 0 80 80" fill="none" xmlns="http://www.w3.org/2000/svg">
<g id="skill-icons:redux" clip-path="url(#clip0_106_369)">
<g id="Group">
<path id="Vector" d="M61.25 6.02612e-07L18.75 1.84473e-07C8.39466 8.25914e-08 -8.25914e-08 8.39466 -1.84473e-07 18.75L-6.02612e-07 61.25C-7.04494e-07 71.6053 8.39466 80 18.75 80L61.25 80C71.6053 80 80 71.6053 80 61.25L80 18.75C80 8.39466 71.6053 7.04494e-07 61.25 6.02612e-07Z" fill="#764ABC"/>
<path id="Vector_2" d="M52.056 51.7497C54.3625 51.511 56.1122 49.5225 56.0325 47.1366C55.9532 44.7506 53.9647 42.8419 51.5788 42.8419L51.4197 42.8419C48.9541 42.9213 47.0453 44.9891 47.1247 47.4547C47.2044 48.6478 47.6816 49.6816 48.3972 50.3975C45.6932 55.7263 41.5575 59.6235 35.3538 62.8844C31.1385 65.1113 26.7641 65.9066 22.3897 65.35C18.8107 64.8728 16.0272 63.2819 14.2772 60.6575C11.7322 56.7603 11.4938 52.545 13.641 48.3297C15.1522 45.3072 17.5382 43.0803 19.0494 41.9669C18.7313 40.9331 18.2541 39.1831 18.0153 37.9106C6.48315 46.2619 7.67596 57.5556 11.1753 62.8844C13.8003 66.861 19.1288 69.3266 25.0144 69.3266C26.605 69.3266 28.1957 69.1675 29.7863 68.7697C39.9669 66.7816 47.6816 60.7369 52.056 51.7497Z" fill="white"/>
<path id="Vector_3" d="M66.0537 41.8875C60.0093 34.8088 51.1015 30.9119 40.9212 30.9119L39.6487 30.9119C38.9327 29.48 37.4215 28.5256 35.7515 28.5256L35.5924 28.5256C33.1268 28.6053 31.2181 30.6731 31.2974 33.1388C31.3771 35.5247 33.3652 37.4334 35.7515 37.4334L35.9106 37.4334C37.6602 37.3541 39.1715 36.2406 39.8077 34.7294L41.2393 34.7294C47.2837 34.7294 53.0102 36.4791 58.1799 39.8991C62.1565 42.5238 65.0199 45.9438 66.6106 50.0794C67.9627 53.4197 67.8831 56.6806 66.4515 59.4644C64.2246 63.6797 60.4865 65.9863 55.5552 65.9863C52.374 65.9863 49.3518 65.0319 47.7609 64.316C46.8862 65.1113 45.2956 66.3838 44.1821 67.1791C47.6018 68.7697 51.1015 69.6447 54.4418 69.6447C62.0771 69.6447 67.724 65.4294 69.8715 61.2141C72.1781 56.6013 72.019 48.6478 66.0537 41.8875Z" fill="white"/>
<path id="Vector_4" d="M25.6507 53.1019C25.7303 55.4878 27.7185 57.3966 30.1047 57.3966L30.2638 57.3966C32.7291 57.3169 34.6382 55.2491 34.5585 52.7834C34.4791 50.3975 32.4907 48.4888 30.1047 48.4888L29.9453 48.4888C29.7866 48.4888 29.5478 48.4888 29.3891 48.5684C26.1278 43.16 24.776 37.2744 25.2532 30.9119C25.5713 26.14 27.1619 22.0041 29.9457 18.5837C32.2519 15.6412 36.706 14.2097 39.7282 14.13C48.1588 13.9709 51.7379 24.4694 51.9763 28.685C53.0104 28.9234 54.76 29.48 55.9532 29.8778C54.9988 16.9938 47.0453 10.3125 39.41 10.3125C32.2519 10.3125 25.6507 15.4822 23.026 23.1175C19.3675 33.2978 21.7535 43.0803 26.2072 50.7953C25.8097 51.3519 25.571 52.2269 25.6507 53.1019Z" fill="white"/>
</g>
</g>
<defs>
<clipPath id="clip0_106_369">
<rect width="80" height="80" fill="white"/>
</clipPath>
</defs>
</svg>
