<svg width="80" height="80" viewBox="0 0 80 80" fill="none" xmlns="http://www.w3.org/2000/svg">
<path d="M74.0634 39.2801L39.2801 74.0634C38.6806 74.7261 38.3587 75.5939 38.3811 76.4873C38.4035 77.3807 38.7684 78.2313 39.4003 78.8632C40.0322 79.4951 40.8828 79.8599 41.7761 79.8823C42.6695 79.9047 43.5373 79.5829 44.2001 78.9834L78.9834 44.2001C79.5829 43.5373 79.9047 42.6695 79.8823 41.7761C79.8599 40.8828 79.4951 40.0322 78.8632 39.4003C78.2313 38.7684 77.3807 38.4035 76.4873 38.3811C75.5939 38.3587 74.7261 38.6806 74.0634 39.2801ZM67.1067 1.01672L1.01672 67.1067C0.417246 67.7695 0.095416 68.6373 0.117793 69.5306C0.140169 70.424 0.505041 71.2746 1.13695 71.9065C1.76885 72.5384 2.61944 72.9033 3.51281 72.9257C4.40618 72.948 5.27398 72.6262 5.93672 72.0267L72.0267 5.93672C72.6262 5.27398 72.948 4.40618 72.9257 3.51281C72.9033 2.61944 72.5384 1.76885 71.9065 1.13695C71.2746 0.505041 70.424 0.140169 69.5306 0.117793C68.6373 0.095416 67.7695 0.417246 67.1067 1.01672Z" fill="black"/>
</svg>
