<svg width="80" height="80" viewBox="0 0 80 80" fill="none" xmlns="http://www.w3.org/2000/svg">
<g id="skill-icons:tailwindcss-light" clip-path="url(#clip0_106_355)">
<g id="Group">
<path id="Vector" d="M61.25 6.02612e-07L18.75 1.84473e-07C8.39466 8.25914e-08 -8.25914e-08 8.39466 -1.84473e-07 18.75L-6.02612e-07 61.25C-7.04494e-07 71.6053 8.39466 80 18.75 80L61.25 80C71.6053 80 80 71.6053 80 61.25L80 18.75C80 8.39466 71.6053 7.04494e-07 61.25 6.02612e-07Z" fill="#132238"/>
<path id="Vector_2" fill-rule="evenodd" clip-rule="evenodd" d="M25.9375 34.375C27.8125 26.875 32.5003 23.125 40 23.125C51.25 23.125 52.6562 31.5625 58.2812 32.9688C62.0316 33.9066 65.3125 32.5003 68.125 28.75C66.2503 36.2497 61.5622 40 54.0625 40C42.8125 40 41.4062 31.5625 35.7812 30.1562C32.0309 29.2187 28.75 30.625 25.9375 34.375ZM11.875 51.25C13.75 43.7503 18.4375 40 25.9375 40C37.1875 40 38.5937 48.4375 44.2187 49.8438C47.9691 50.7816 51.25 49.3753 54.0625 45.625C52.1878 53.1247 47.4997 56.875 40 56.875C28.75 56.875 27.3437 48.4375 21.7187 47.0312C17.9687 46.0934 14.6875 47.4997 11.875 51.25Z" fill="url(#paint0_linear_106_355)"/>
</g>
</g>
<defs>
<linearGradient id="paint0_linear_106_355" x1="27.0312" y1="23.125" x2="51.0937" y2="57.9687" gradientUnits="userSpaceOnUse">
<stop stop-color="#32B1C1"/>
<stop offset="1" stop-color="#14C6B7"/>
</linearGradient>
<clipPath id="clip0_106_355">
<rect width="80" height="80" fill="white"/>
</clipPath>
</defs>
</svg>
