<svg width="80" height="80" viewBox="0 0 80 80" fill="none" xmlns="http://www.w3.org/2000/svg">
<g id="skill-icons:typescript" clip-path="url(#clip0_106_386)">
<g id="Group">
<path id="Vector" d="M61.25 6.02612e-07L18.75 1.84473e-07C8.39466 8.25914e-08 -8.25914e-08 8.39466 -1.84473e-07 18.75L-6.02612e-07 61.25C-7.04494e-07 71.6053 8.39466 80 18.75 80L61.25 80C71.6053 80 80 71.6053 80 61.25L80 18.75C80 8.39466 71.6053 7.04494e-07 61.25 6.02612e-07Z" fill="#007ACC"/>
<path id="Vector_2" d="M17.691 40.2654L17.6656 43.5416L28.0781 43.5416L28.0781 73.1288L35.4438 73.1288L35.4438 43.5416L45.8563 43.5416L45.8563 40.3288C45.8563 38.551 45.8185 37.0654 45.7675 37.0273C45.7294 36.9766 39.3928 36.951 31.7103 36.9638L17.7294 37.002L17.691 40.2654ZM64.5522 36.9088C66.5838 37.417 68.1332 38.3185 69.5553 39.7913C70.2919 40.5788 71.3838 42.0138 71.4728 42.3566C71.4982 42.4582 68.0188 44.7948 65.911 46.1026C65.8347 46.1535 65.5297 45.8232 65.1869 45.3154C64.1585 43.817 63.0791 43.1691 61.4282 43.0551C59.0028 42.8898 57.441 44.1598 57.4538 46.2804C57.4538 46.9026 57.5425 47.2707 57.7966 47.7788C58.3297 48.8835 59.3203 49.5438 62.4316 50.8898C68.1585 53.3535 70.6091 54.9788 72.1332 57.2898C73.8347 59.8676 74.2157 63.982 73.06 67.0423C71.7903 70.3691 68.641 72.6295 64.2091 73.3788C62.8378 73.6201 59.5869 73.582 58.1141 73.3154C54.9013 72.7438 51.8538 71.1566 49.9744 69.0741C49.2378 68.2613 47.8028 66.1407 47.8919 65.9882C47.9297 65.9376 48.26 65.7345 48.6282 65.5185C48.9838 65.3154 50.33 64.5407 51.5997 63.8041L53.8982 62.4707L54.3807 63.182C55.0538 64.2104 56.5266 65.6201 57.4157 66.0898C59.9678 67.436 63.4728 67.2454 65.1997 65.6963C65.9363 65.0232 66.241 64.3248 66.241 63.2963C66.241 62.3691 66.1266 61.9629 65.6441 61.2645C65.0219 60.3757 63.7522 59.6263 60.1457 58.0645C56.0188 56.2866 54.241 55.182 52.6157 53.4295C51.676 52.4138 50.7869 50.7882 50.4188 49.4295C50.1141 48.2995 50.0378 45.4676 50.2791 44.3248C51.1297 40.3376 54.1394 37.5566 58.4822 36.731C59.8919 36.4645 63.1678 36.566 64.5522 36.9088Z" fill="white"/>
</g>
</g>
<defs>
<clipPath id="clip0_106_386">
<rect width="80" height="80" fill="white"/>
</clipPath>
</defs>
</svg>
