<svg width="51" height="40" viewBox="0 0 51 40" fill="none" xmlns="http://www.w3.org/2000/svg">
<g id="Logo">
<path id="Vector" d="M15.8264 22.5523C16.659 22.0273 17.4978 21.5085 18.3182 20.9648C23.5589 17.5273 28.7996 14.0836 34.0465 10.6524C35.3567 9.79613 36.722 9.42113 37.9893 10.6649C39.2444 11.8961 38.8587 13.3399 38.2771 14.7398C37.775 15.9461 37.2424 17.1398 36.7281 18.3398C36.8444 18.4648 36.9608 18.5898 37.0771 18.7148C37.6342 18.4461 38.2281 18.2273 38.7485 17.8898C41.3382 16.2273 43.928 14.5586 46.4871 12.8461C47.8463 11.9336 49.0953 12.0086 50.1912 13.1899C51.2381 14.3148 51.2197 15.6023 50.4177 16.8773C48.3483 20.1461 46.2606 23.396 44.1913 26.6648C43.7321 27.3897 43.3219 28.1522 42.826 29.0147C44.5096 29.7835 46.1259 30.4147 45.9606 32.5147C45.7953 34.6084 44.0382 34.9834 42.5811 35.6459C41.326 36.2147 40.0832 36.8397 38.773 37.2397C37.1505 37.7397 35.5036 37.7647 34.3526 36.1584C33.2506 34.6209 33.5016 33.0022 34.3832 31.4835C35.1485 30.171 36.0608 28.946 36.875 27.6585C37.1934 27.1585 37.4199 26.6023 37.6893 26.0773C37.5607 25.9398 37.4322 25.796 37.3036 25.6585C35.5342 26.7585 33.7526 27.8335 32.0016 28.971C30.7404 29.796 29.5711 30.771 28.2854 31.546C27.1099 32.2585 25.9038 32.2585 24.9058 31.096C23.9262 29.9522 23.7364 28.7147 24.563 27.4147C25.4201 26.0835 26.3507 24.8023 27.2078 23.471C27.5568 22.9273 27.8078 22.321 28.1078 21.7398C27.9792 21.6148 27.8568 21.4835 27.7282 21.3585C26.216 22.2898 24.6364 23.121 23.2099 24.171C20.1855 26.396 17.1978 28.6897 14.2713 31.046C10.9407 33.7209 7.73259 36.5647 4.35917 39.1834C3.59387 39.7771 2.149 40.2271 1.40819 39.8772C0.655141 39.5209 0.00617027 38.0959 4.79091e-05 37.1397C-0.00607445 36.0272 0.57555 34.7959 1.19391 33.8084C7.83667 23.1648 14.5468 12.5649 21.2202 1.93994C22.0283 0.658703 23.0507 -0.397539 24.563 0.146207C25.414 0.452455 26.4548 1.4337 26.5956 2.25869C26.7609 3.22118 26.2344 4.46492 25.6834 5.38367C22.714 10.2586 19.6406 15.0648 16.6161 19.9023C16.1631 20.6273 15.7651 21.3835 15.3427 22.121C15.5141 22.271 15.6672 22.4085 15.8264 22.5523Z" fill="#222A35"/>
</g>
</svg>
